<svg xmlns="http://www.w3.org/2000/svg" width="196" height="143" viewBox="0 0 196 143" fill="none"><path opacity="0.36" d="M83.6369 88.1051C85.0913 91.0661 87.3356 93.5703 90.1235 95.3429C92.9114 97.1155 96.1351 98.088 99.4408 98.1537C101.183 98.1239 102.918 97.9303 104.624 97.5753C104.837 99.7879 105.713 101.885 107.139 103.594C108.565 105.302 110.474 106.543 112.617 107.154C116.978 108.255 121.598 107.606 125.485 105.347C125.177 106.377 126.192 107.262 127.116 107.805C131.183 110.104 135.741 111.403 140.412 111.595C145.083 111.786 149.733 110.865 153.975 108.907C158.251 106.753 161.968 103.639 164.833 99.8095C167.698 95.9805 169.633 91.541 170.486 86.84C178.207 86.4243 186.127 83.6411 191.093 77.8035C193.788 74.4373 195.453 70.3672 195.887 66.0813C196.321 61.7954 195.506 57.4757 193.54 53.64C191.465 49.8602 188.412 46.7045 184.698 44.5016C180.985 42.2988 176.746 41.1294 172.425 41.1155C171.256 37.9939 168.917 35.4472 165.901 34.0128C162.91 32.6001 159.748 31.5795 156.495 30.9766C153.667 30.2294 150.77 29.7752 147.85 29.6211C142.861 29.8376 137.951 30.9392 133.351 32.8742C129.218 34.3201 123.999 36.6334 122.077 40.5552L117.565 40.3203C109.155 39.8504 100.401 39.4347 92.5899 42.6155C89.8598 43.6936 87.374 45.3061 85.2791 47.3578C83.1842 49.4096 81.5226 51.8591 80.3926 54.5617C78.7977 58.7366 78.8521 63.5982 81.9875 66.9236C83.169 68.153 84.5173 69.2115 85.993 70.0683C84.6155 70.2852 84.0174 72.3816 83.528 73.5202C82.8564 75.0581 82.4049 76.6825 82.1869 78.3457C81.7233 81.6702 82.2266 85.0575 83.6369 88.1051Z" fill="url(#paint0_linear_20_3018)"></path><path d="M125.286 35.5684C115.826 39.9795 108.379 47.7803 104.425 57.4185C98.1542 73.4131 96.2874 95.3717 106.817 110.065C107.198 110.607 107.724 111.204 108.394 111.131C108.837 111.018 109.227 110.756 109.5 110.39C118.145 100.956 124.905 89.245 131.448 78.3108C138.298 66.8345 144.442 54.9425 150.441 42.9963C151.79 40.8264 152.494 38.3198 152.471 35.7672C151.311 26.3331 130.251 33.2189 125.286 35.5684ZM144.877 48.0568C140.002 57.7438 135.018 67.3948 129.454 76.7204C124.144 85.5942 118.58 95.1187 111.638 102.764C111.42 103.067 111.097 103.279 110.732 103.36C110.206 103.36 109.772 102.944 109.463 102.51C100.909 90.6366 102.431 72.7444 107.524 59.7499C110.743 51.9031 116.815 45.5579 124.524 41.9842C128.53 40.177 145.639 34.484 146.527 42.0927C146.562 44.1973 145.99 46.2677 144.877 48.0568Z" fill="#F26640"></path><g style="mix-blend-mode:multiply"><path d="M103.736 64.4294C104.254 65.077 104.824 65.6814 105.44 66.2367C106.015 64.0671 106.71 61.9311 107.524 59.8389C108.244 58.0234 109.136 56.2805 110.188 54.6339H110.08C109.174 54.5708 108.266 54.5708 107.361 54.6339C106.842 54.6439 106.326 54.5581 105.839 54.3809C105.285 55.4316 104.789 56.5116 104.352 57.6159C103.682 59.3148 103.084 61.104 102.54 62.9294C102.683 63.0857 102.81 63.2552 102.921 63.4354C103.156 63.6704 103.446 64.0318 103.736 64.4294Z" fill="#F26640"></path></g><g style="mix-blend-mode:multiply"><path d="M146.888 31.1387C147.166 34.8218 147.044 38.5241 146.525 42.1812C146.551 44.2676 145.979 46.318 144.876 48.0911C140.001 57.7782 135.017 67.4291 129.453 76.7548C127.64 79.7187 125.828 82.755 124.016 85.7912L124.124 85.8997L124.976 86.6587L125.321 86.9479C125.52 87.1105 125.737 87.2371 125.955 87.3816C127.767 84.3635 129.58 81.3272 131.392 78.3452C138.243 66.8689 144.387 54.9769 150.386 43.0307C151.734 40.8608 152.438 38.3541 152.416 35.8015C152.071 32.946 149.878 31.5363 146.888 31.1387Z" fill="#F26640"></path></g><path d="M137.048 99.3457C136.105 112.129 135.157 124.919 134.202 137.715C142.871 141.291 152.207 142.98 161.584 142.669C170.96 142.357 180.163 140.052 188.574 135.907C190.666 135.109 192.402 133.589 193.467 131.624C194.058 129.448 193.899 127.138 193.014 125.064L179.294 79.7366C175.996 68.8928 165.448 52.4826 151.728 59.9829C139.204 66.9229 137.972 86.9477 137.048 99.3457Z" fill="url(#paint1_linear_20_3018)"></path><path style="mix-blend-mode:multiply" d="M142.92 107.044C145.758 103.619 148.095 99.8103 149.861 95.7308C150.903 93.6447 151.462 91.3517 151.497 89.0213C151.531 86.6908 151.041 84.3824 150.06 82.2665C149.401 80.7875 148.297 79.5495 146.9 78.7239C145.504 77.8982 143.885 77.5257 142.267 77.6579C141.537 77.6679 140.815 77.5005 140.165 77.1699C138.407 84.4435 137.363 91.8703 137.048 99.3454C136.758 103.105 136.486 106.882 136.214 110.641C138.837 110.37 141.247 109.078 142.92 107.044Z" fill="url(#paint2_linear_20_3018)" fill-opacity="0.2"></path><path style="mix-blend-mode:multiply" opacity="0.75" d="M148.502 64.1758L148.611 64.3565C149.17 64.9453 149.826 65.4343 150.55 65.8024C152.526 66.9771 154.628 67.8988 156.585 69.0555C158.724 70.1525 160.513 71.8238 161.751 73.881C162.577 75.5902 163.121 77.4209 163.364 79.3028C163.467 80.8041 163.94 82.2567 164.741 83.5319C166.3 85.3392 169.526 85.9898 171.827 86.2609C171.193 86.2609 172.462 86.2609 172.48 86.2609C173.132 86.2609 173.767 86.2609 174.419 86.2609C175.706 86.2609 177.011 86.1344 178.298 86.0621C179.204 86.0621 180.11 85.9537 181.143 85.9356C180.527 83.8572 179.892 81.7969 179.331 79.7366C176.032 68.8928 165.484 52.4826 151.764 59.9829C150.512 60.6912 149.35 61.5467 148.303 62.5312C148.426 63.071 148.493 63.6222 148.502 64.1758Z" fill="url(#paint3_linear_20_3018)" fill-opacity="0.3"></path><path style="mix-blend-mode:multiply" d="M193.085 125.118L184.023 94.9902C183.516 94.9902 183.008 94.9902 182.501 94.9902C181.214 104.804 171.192 112.774 163.852 118.286C155.478 124.558 145.257 126.546 135.035 127.485L134.273 137.769C142.943 141.346 152.278 143.035 161.655 142.723C171.032 142.411 180.234 140.106 188.645 135.962C190.737 135.163 192.473 133.643 193.538 131.678C194.13 129.503 193.97 127.192 193.085 125.118Z" fill="url(#paint4_linear_20_3018)" fill-opacity="0.2"></path><path d="M111.402 64.3201C111.192 64.6665 111.01 65.0291 110.858 65.4045C110.152 67.2117 111.021 67.3744 112.562 68.7299C115.281 71.0974 117.999 73.3927 120.971 75.5614C125.864 79.5923 131.029 83.2819 136.431 86.604C141.216 89.2427 147.142 92.55 152.253 88.7728C153.673 87.688 154.783 86.2513 155.473 84.6056C156.163 82.9599 156.409 81.1627 156.186 79.3929C155.936 77.6289 155.275 75.9479 154.255 74.4852C153.235 73.0224 151.885 71.8187 150.314 70.9709C148.583 70.1275 146.758 69.4906 144.877 69.0733L129.943 65.1334C124.931 63.9724 120.031 62.3759 115.299 60.3621C115.172 60.2773 115.029 60.2219 114.878 60.2C114.728 60.1781 114.574 60.1903 114.429 60.2356C114.28 60.3181 114.159 60.4443 114.084 60.5971C113.341 61.7537 112.181 63.0369 111.402 64.3201Z" fill="url(#paint5_linear_20_3018)"></path><path d="M51.8659 16.6826C48.0418 7.32077 36.805 -0.613244 26.4925 0.0373819C22.3357 0.231544 18.2887 1.43224 14.7015 3.53569C11.1144 5.63914 8.09484 8.58206 5.90391 12.1101C2.62349 17.532 -0.221945 23.4599 0.0136646 29.7493C0.358017 39.1472 4.97951 48.8704 14.2045 52.0513C19.3879 53.8586 24.8252 55.3948 30.2805 54.8164C35.4631 54.1565 40.297 51.8572 44.0727 48.256C49.1465 43.6625 52.4432 37.4394 53.3883 30.671C54.1056 25.9554 53.5809 21.1349 51.8659 16.6826Z" fill="url(#paint6_linear_20_3018)"></path><path d="M46.7544 18.9786C43.7277 11.5326 34.7926 5.22512 26.5826 5.74924C23.2869 5.90921 20.0799 6.86647 17.2381 8.53841C14.3963 10.2104 12.0052 12.5467 10.2711 15.346C7.67941 19.6292 5.4139 24.3824 5.59514 29.3706C5.867 36.8347 9.54619 44.5699 16.8682 47.1001C20.9086 48.7272 25.2581 49.449 29.6092 49.2146C33.6981 48.6814 37.5087 46.8574 40.4835 44.0096C44.5072 40.3556 47.123 35.4137 47.878 30.0393C48.4677 26.3175 48.0806 22.5069 46.7544 18.9786Z" fill="#7BB8DD"></path><path d="M46.7544 18.9786C43.7277 11.5326 34.7926 5.22512 26.5826 5.74924C23.2869 5.90921 20.0799 6.86647 17.2381 8.53841C14.3963 10.2104 12.0052 12.5467 10.2711 15.346C7.67941 19.6292 5.4139 24.3824 5.59514 29.3706C5.867 36.8347 9.54619 44.5699 16.8682 47.1001C20.9086 48.7272 25.2581 49.449 29.6092 49.2146C33.6981 48.6814 37.5087 46.8574 40.4835 44.0096C44.5072 40.3556 47.123 35.4137 47.878 30.0393C48.4677 26.3175 48.0806 22.5069 46.7544 18.9786Z" fill="url(#paint7_linear_20_3018)"></path><path d="M41.3718 21.4361C39.1788 16.0143 32.6723 11.4418 26.7096 11.8033C24.308 11.9216 21.971 12.62 19.9 13.8383C17.829 15.0567 16.0858 16.7586 14.8204 18.7975C12.7269 21.7918 11.5438 25.3247 11.4131 28.9726C11.6124 34.3944 14.2767 40.0332 19.6051 41.8766C22.5525 43.0708 25.7246 43.6134 28.9026 43.4671C31.8992 43.0841 34.6938 41.754 36.877 39.6717C39.8234 37.0232 41.747 33.4297 42.3142 29.5147C42.7042 26.7859 42.3796 24.0029 41.3718 21.4361Z" fill="url(#paint8_linear_20_3018)"></path><path d="M34.5928 24.5272C33.9341 23.0298 32.8543 21.7548 31.4841 20.8567C30.1138 19.9586 28.5119 19.4758 26.8721 19.4668C25.6115 19.5181 24.3822 19.8739 23.2899 20.5035C22.1977 21.1331 21.275 22.0177 20.6012 23.0814C19.4826 24.6752 18.853 26.559 18.7889 28.5033C18.7573 29.9336 19.1521 31.341 19.9231 32.5475C20.6942 33.7539 21.807 34.7051 23.1205 35.2806C24.6647 35.9113 26.3292 36.1952 27.9958 36.112C29.5747 35.9153 31.0486 35.2184 32.2005 34.1239C33.7595 32.7094 34.7619 30.7871 35.0278 28.7021C35.25 27.2964 35.0999 25.8573 34.5928 24.5272Z" fill="url(#paint9_linear_20_3018)"></path><path opacity="0.64" d="M124.96 25.0857C123.504 22.122 121.257 19.616 118.465 17.8432C115.674 16.0704 112.446 15.0995 109.137 15.0371C107.402 15.0768 105.673 15.2703 103.972 15.6155C103.763 13.4037 102.888 11.3067 101.461 9.60034C100.035 7.89393 98.1238 6.65795 95.9796 6.05489C91.6186 4.95222 86.9976 5.60122 83.1116 7.86219C83.4198 6.8501 82.4049 5.94646 81.4806 5.42234C77.415 3.1205 72.8577 1.81816 68.1866 1.62329C63.5155 1.42843 58.8652 2.34665 54.6211 4.30182C50.342 6.45684 46.6234 9.57342 43.7582 13.406C40.893 17.2385 38.9595 21.6822 38.1102 26.3869C30.3894 26.7845 22.4693 29.5858 17.5034 35.4234C14.8065 38.7925 13.1413 42.8657 12.7073 47.1547C12.2733 51.4438 13.0891 55.7666 15.0567 59.605C17.1307 63.3839 20.1842 66.5381 23.8984 68.7381C27.6125 70.9381 31.8511 72.1031 36.171 72.1115C37.3328 75.2419 39.6736 77.7966 42.6956 79.2322C45.6871 80.6391 48.8489 81.6536 52.1018 82.2504C54.9269 83.0077 57.8251 83.4621 60.7469 83.6058C65.7354 83.3893 70.6452 82.2877 75.246 80.3527C79.3782 78.9069 84.5978 76.6116 86.5189 72.6717L91.0318 72.9247C99.4412 73.3946 108.195 73.8103 116.006 70.6114C118.737 69.5334 121.222 67.9209 123.317 65.8691C125.412 63.8173 127.074 61.3678 128.204 58.6652C129.128 56.663 129.468 54.4419 129.186 52.2559C128.904 50.0699 128.011 48.0072 126.609 46.3033C125.423 45.0837 124.075 44.0318 122.604 43.1767C123.981 42.9418 124.579 40.8453 125.068 39.7248C125.732 38.1777 126.183 36.5485 126.409 34.8812C126.877 31.545 126.374 28.145 124.96 25.0857Z" fill="url(#paint10_linear_20_3018)"></path><path d="M75.4264 38.8756H75.227C73.4503 40.6977 71.9484 42.7676 70.7685 45.0204C68.3943 40.972 66.5638 36.5803 63.9902 32.6766C68.8474 32.3151 73.7227 32.044 78.5799 31.8633C78.0362 32.6946 76.6587 36.3454 76.1694 37.1406C78.9047 38.1965 81.5792 39.4032 84.1802 40.7552C87.1525 42.1287 90.1066 43.5263 93.0427 44.9481C98.6248 47.659 104.298 50.37 109.698 53.4062C115.099 56.4425 121.026 58.6474 126.644 61.1776C126.496 61.8251 126.225 62.4385 125.847 62.9849L117.546 59.2438C113.36 57.4365 109.336 55.3219 105.077 53.5327C102.938 52.6291 100.818 51.7254 98.7517 50.6411C93.3025 47.7855 87.823 44.9842 82.3134 42.2371C81.081 41.6227 75.4264 38.8756 75.4264 38.8756Z" fill="url(#paint11_linear_20_3018)"></path><path d="M183.082 27.1461C180.67 24.3561 177.635 22.1707 174.22 20.7663C171.106 19.3015 167.788 18.3144 164.378 17.8385C162.746 17.7722 161.11 17.8874 159.503 18.1819C155.572 18.5994 151.783 19.8834 148.411 21.941C146.01 23.6534 144.245 26.1109 143.392 28.9295C142.54 31.7481 142.648 34.7689 143.699 37.5199C144.895 40.2308 147.632 42.1466 148.43 44.984C149.372 48.3456 147.36 51.8879 147.777 55.3579C148.266 59.2255 151.637 62.063 155.027 63.9606C157.277 64.9623 159.337 66.3441 161.116 68.0451C162.167 69.256 162.929 70.7199 163.78 72.0211C168.474 78.5274 179.186 80.2082 181.107 87.9795C183.735 86.7686 184.043 83.2444 185.366 80.7504C186.83 78.5055 188.612 76.4843 190.658 74.7501C192.47 72.8163 194.12 70.2138 193.576 67.521C193.032 64.8281 190.984 63.4546 189.842 61.3039C187.758 57.4001 189.027 52.6831 189.444 48.2914C189.851 44.5219 189.498 40.7092 188.405 37.0778C187.313 33.4464 185.503 30.0696 183.082 27.1461Z" fill="url(#paint12_linear_20_3018)"></path><path style="mix-blend-mode:multiply" opacity="0.52" d="M177.12 79.2868C175.144 76.3229 172.154 74.371 169.562 72.0577C163.201 66.2382 162.313 58.5391 164.56 50.569C165.502 47.2797 166.989 43.629 165.738 40.1951C164.759 37.5384 162.44 35.6588 160.537 33.6527C157.945 30.8875 155.589 27.9959 155.099 24.1463C154.881 22.4878 154.918 20.8058 155.208 19.1582C152.81 19.7086 150.528 20.6751 148.466 22.0137C146.064 23.7261 144.3 26.1836 143.447 29.0022C142.594 31.8208 142.702 34.8416 143.754 37.5926C144.95 40.3035 147.687 42.2193 148.484 45.0567C149.427 48.4183 147.415 51.9606 147.85 55.4306C148.321 59.2982 151.692 62.1356 155.099 64.0333C157.35 65.035 159.41 66.4168 161.189 68.1178C162.24 69.3287 163.001 70.7926 163.853 72.0938C167.768 77.5157 175.887 79.6122 179.566 84.7449C179.052 82.8057 178.226 80.9624 177.12 79.2868Z" fill="url(#paint13_linear_20_3018)"></path><path d="M105.712 58.9547C105.458 56.4245 106.328 53.5329 105.367 51.0569C106.542 50.8901 107.739 51.0922 108.793 51.6352C110.109 52.1041 111.335 52.7949 112.417 53.6774C114.23 55.2679 115.843 59.0993 113.994 61.1777C113.012 62.2232 112.177 63.3966 111.511 64.6658C111.33 64.9911 110.895 66.4731 110.587 66.6357C110.279 66.7984 109.862 66.1478 109.608 65.9128C107.471 64.1707 106.078 61.6832 105.712 58.9547Z" fill="#EACCA4"></path><defs><linearGradient id="paint0_linear_20_3018" x1="11.2924" y1="4.71876" x2="128.024" y2="14.0836" gradientUnits="userSpaceOnUse"><stop stop-color="#CADDFB"></stop><stop offset="1" stop-color="#8CD9BB"></stop></linearGradient><linearGradient id="paint1_linear_20_3018" x1="134.22" y1="100.43" x2="193.938" y2="100.43" gradientUnits="userSpaceOnUse"><stop stop-color="#6A0053"></stop><stop offset="0.45" stop-color="#FF6148"></stop><stop offset="1" stop-color="#CC27A3"></stop></linearGradient><linearGradient id="paint2_linear_20_3018" x1="15488.9" y1="3281.69" x2="15992.5" y2="3281.69" gradientUnits="userSpaceOnUse"><stop stop-color="#6A0053"></stop><stop offset="0.45" stop-color="#FF6148"></stop><stop offset="1" stop-color="#CC27A3"></stop></linearGradient><linearGradient id="paint3_linear_20_3018" x1="33134.4" y1="2417.34" x2="34216.5" y2="2417.34" gradientUnits="userSpaceOnUse"><stop stop-color="#6A0053"></stop><stop offset="0.45" stop-color="#FF6148"></stop><stop offset="1" stop-color="#CC27A3"></stop></linearGradient><linearGradient id="paint4_linear_20_3018" x1="60014.7" y1="5326.68" x2="61979" y2="5326.68" gradientUnits="userSpaceOnUse"><stop stop-color="#6A0053"></stop><stop offset="0.45" stop-color="#FF6148"></stop><stop offset="1" stop-color="#CC27A3"></stop></linearGradient><linearGradient id="paint5_linear_20_3018" x1="45375.1" y1="2648.24" x2="46525.6" y2="2648.24" gradientUnits="userSpaceOnUse"><stop stop-color="#6A0053"></stop><stop offset="0.45" stop-color="#FF6148"></stop><stop offset="1" stop-color="#CC27A3"></stop></linearGradient><linearGradient id="paint6_linear_20_3018" x1="41.0861" y1="3.67789" x2="13.9054" y2="51.7179" gradientUnits="userSpaceOnUse"><stop></stop><stop offset="1" stop-color="#7F0038"></stop></linearGradient><linearGradient id="paint7_linear_20_3018" x1="-201718" y1="-254067" x2="-202225" y2="-253170" gradientUnits="userSpaceOnUse"><stop stop-color="#6A0053"></stop><stop offset="0.45" stop-color="#FF6148"></stop><stop offset="1" stop-color="#CC27A3"></stop></linearGradient><linearGradient id="paint8_linear_20_3018" x1="-94203.6" y1="228163" x2="-93655.7" y2="228163" gradientUnits="userSpaceOnUse"><stop></stop><stop offset="1" stop-color="#7F0038"></stop></linearGradient><linearGradient id="paint9_linear_20_3018" x1="-72390.6" y1="-89454.6" x2="-72465.2" y2="-89322.9" gradientUnits="userSpaceOnUse"><stop stop-color="#6A0053"></stop><stop offset="0.45" stop-color="#FF6148"></stop><stop offset="1" stop-color="#CC27A3"></stop></linearGradient><linearGradient id="paint10_linear_20_3018" x1="1.40501e+06" y1="87613.6" x2="1.3975e+06" y2="87010.7" gradientUnits="userSpaceOnUse"><stop stop-color="#CADDFB"></stop><stop offset="1" stop-color="#8CD9BB"></stop></linearGradient><linearGradient id="paint11_linear_20_3018" x1="60567.1" y1="2211" x2="62733.1" y2="2211" gradientUnits="userSpaceOnUse"><stop></stop><stop offset="1" stop-color="#7F0038"></stop></linearGradient><linearGradient id="paint12_linear_20_3018" x1="142.775" y1="52.9" x2="193.703" y2="52.9" gradientUnits="userSpaceOnUse"><stop stop-color="#006CBF"></stop><stop offset="0.53" stop-color="#4D9FAD"></stop><stop offset="1" stop-color="#2C1056"></stop></linearGradient><linearGradient id="paint13_linear_20_3018" x1="37167.5" y1="4771.57" x2="38198.4" y2="4771.57" gradientUnits="userSpaceOnUse"><stop stop-color="#006CBF"></stop><stop offset="0.53" stop-color="#4D9FAD"></stop><stop offset="1" stop-color="#2C1056"></stop></linearGradient></defs></svg>