<svg xmlns="http://www.w3.org/2000/svg" width="225" height="126" viewBox="0 0 225 126" fill="none"><path d="M24.3059 17.0021C28.8571 23.4415 30.8583 31.2225 32.5798 38.8747C34.5074 46.9524 35.9234 55.1431 36.8191 63.3982C37.1096 66.3926 37.1849 69.7411 35.216 71.9841C32.6444 74.957 28.0287 74.6243 24.2198 75.6653C18.1982 63.4108 14.2672 50.2404 12.5888 36.696C12.1477 33.0899 11.868 29.4624 11.1687 25.8885C10.5123 22.4971 4.28261 7.6971 8.45726 6.15164C11.061 5.18572 14.913 8.21225 16.8281 9.59673C19.714 11.6359 22.2408 14.1383 24.3059 17.0021V17.0021Z" fill="url(#paint0_linear_20_3064)"></path><path opacity="0.97" d="M105.323 97.8705C110.994 86.9235 116.901 76.0838 122.28 64.9865C125.013 59.3412 127.66 53.6423 129.962 47.8146C130.683 46.0438 133.664 33.8625 136.074 33.7552C133.467 33.907 130.852 33.6682 128.316 33.0469C123.335 42.2338 119.633 52.4725 114.975 61.9278C111.983 68.0166 108.978 74.0983 105.958 80.1728C105.173 81.729 99.3949 95.1982 97.3506 97.8813L105.323 97.8705Z" fill="url(#paint1_linear_20_3064)"></path><path opacity="0.97" d="M183.352 48.2668C185.697 54.0837 188.301 59.7934 191.034 65.4386C196.349 76.4071 202.17 87.1073 207.786 97.9255H215.662C213.435 94.5126 208.131 82.106 207.367 80.6142C204.34 74.5468 201.331 68.4652 198.339 62.3692C193.681 52.9032 189.979 42.6645 184.998 33.4883C182.461 34.1062 179.847 34.3413 177.24 34.1859C179.65 34.3576 182.631 46.5067 183.352 48.2668Z" fill="url(#paint2_linear_20_3064)"></path><path opacity="0.97" d="M193.982 31.3305C157.497 31.3305 121.076 30.8583 84.6984 30.8583C84.8598 30.9119 84.6984 30.5578 84.4832 30.59C84.4506 30.5939 84.4191 30.6043 84.3905 30.6206C84.362 30.6368 84.337 30.6585 84.317 30.6845C84.2969 30.7105 84.2823 30.7402 84.2739 30.7718C84.2655 30.8035 84.2634 30.8366 84.268 30.869C84.4124 32.9346 84.711 34.9866 85.1611 37.0079C121.657 37.9953 158.088 38.5749 194.617 38.0812C204.3 37.9417 215.06 38.7895 224.485 37.5124C224.72 35.3052 224.745 33.0809 224.56 30.869C214.597 31.8349 204.074 31.3305 193.982 31.3305Z" fill="url(#paint3_linear_20_3064)"></path><path style="mix-blend-mode:multiply" opacity="0.97" d="M137.279 34.1521C140.808 34.5492 144.735 35.2253 148.242 34.3989C150.417 33.8475 152.399 32.7159 153.977 31.1255C130.866 30.986 107.787 30.8036 84.7189 30.8036C84.8803 30.8572 84.7188 30.5031 84.5036 30.5353C84.471 30.5392 84.4396 30.5496 84.411 30.5659C84.3825 30.5821 84.3575 30.6038 84.3375 30.6298C84.3174 30.6558 84.3028 30.6855 84.2944 30.7172C84.286 30.7488 84.284 30.7818 84.2885 30.8143C84.4329 32.8799 84.7313 34.9319 85.1815 36.9532C95.5966 37.2323 105.997 37.472 116.384 37.6723C121.882 32.3061 130.253 33.3579 137.279 34.1521Z" fill="url(#paint4_linear_20_3064)"></path><path d="M111.457 23.12C114.761 26.0562 118.638 28.2792 122.845 29.6497C127.052 31.0201 131.497 31.5082 135.902 31.0834C137.757 31.0174 139.55 30.4049 141.056 29.3233C143.584 27.1768 143.67 23.3668 143.079 20.1363C142.798 18.2844 142.181 16.4989 141.26 14.8667C137.742 9.10344 130.587 8.73854 124.637 9.20004C116.186 9.7447 107.702 8.96613 99.4922 6.89258C102.612 12.5485 106.615 18.7626 111.457 23.12Z" fill="#D9C49F"></path><g style="mix-blend-mode:multiply"><path d="M143.078 20.1353C142.797 18.2834 142.181 16.4978 141.26 14.8657C137.741 9.10238 130.586 8.73748 124.636 9.19897C121.001 9.47257 117.351 9.47257 113.716 9.19897C113.597 11.485 113.791 13.9534 115.502 15.6384C117.654 17.7849 120.946 18.0961 123.711 18.7079C127.595 19.5557 131.243 20.8544 133.89 23.956C135.57 26.0788 137.115 28.3048 138.516 30.6208C139.444 30.374 140.309 29.9352 141.055 29.333C143.584 27.2079 143.67 23.3657 143.078 20.1353Z" fill="#D9C49F"></path></g><path d="M85.0419 0.839551C75.7888 -0.770307 66.0409 -0.15856 58.5308 3.49045C55.7365 4.90797 53.1394 6.68307 50.8055 8.7708C41.5559 16.9462 35.3867 28.0305 33.3214 40.1845C32.1379 47.0962 32.5252 49.1997 39.1853 51.2281C46.6093 53.4927 54.1086 55.5211 61.6509 57.3778C62.5572 57.6956 63.5365 57.7441 64.4699 57.5173C65.3687 57.1085 66.1199 56.4342 66.6218 55.5855C72.1414 47.8474 75.8104 38.2956 83.7508 33.0475C87.904 30.3107 92.8426 29.0443 97.6628 27.8208C102.763 26.5436 112.726 26.651 112.188 20.6408C111.747 15.5537 108.11 10.6597 104.151 8.05172C98.3286 4.39742 91.8309 1.945 85.0419 0.839551V0.839551Z" fill="url(#paint5_linear_20_3064)"></path><path style="mix-blend-mode:multiply" d="M102.494 12.6346C97.7388 10.9241 92.6256 10.4477 87.6351 11.2501C82.858 11.9906 78.6941 12.2589 74.1966 14.4162C66.5036 18.1081 58.8644 22.7016 54.1195 29.7849C50.6826 34.9552 49.0145 41.0957 49.3639 47.2895C49.3741 48.075 49.5234 48.8526 49.805 49.5862C50.2191 50.4098 50.7977 51.1402 51.505 51.7327C54.3227 54.4777 57.8262 56.4196 61.6511 57.3565C62.5574 57.6743 63.5367 57.7228 64.4701 57.496C65.3689 57.0872 66.12 56.4128 66.6219 55.5641C72.1415 47.8261 75.8105 38.2743 83.751 33.0261C87.9041 30.2894 92.8428 29.0229 97.663 27.7994C101.59 26.8121 106.335 27.0589 109.853 24.8266C114.598 21.8322 110.165 16.5626 106.712 14.5664C105.362 13.8059 103.952 13.1597 102.494 12.6346V12.6346Z" fill="url(#paint6_linear_20_3064)"></path><path d="M93.8762 64.4829C79.6578 71.566 64.1835 75.7958 48.3314 76.9325C45.9696 77.2074 43.5788 77.0987 41.2518 76.6105C34.9791 75.0221 30.9012 68.6041 30.0404 62.2076C28.8031 52.9778 31.4285 41.4619 42.5107 40.496C61.8777 38.811 82.2129 37.2763 100.031 45.0573C101.537 45.712 103.129 46.5491 103.796 48.0516C104.157 49.0844 104.265 50.1886 104.108 51.2713C103.379 60.1161 101.695 68.8564 99.0837 77.3403C96.6521 85.6686 93.3704 93.6213 91.6812 102.154L83.5364 102.701C83.4072 102.723 83.2741 102.701 83.1597 102.637C83.0306 102.551 83.0092 102.368 82.9876 102.218C81.9117 91.9471 83.1921 80.5171 84.5908 70.2999L82.3743 69.3447" fill="url(#paint7_linear_20_3064)"></path><path style="mix-blend-mode:multiply" d="M69.6894 64.8578C66.3364 62.8848 62.7113 61.4132 58.93 60.4897C54.4326 59.3628 49.7737 59.0516 45.287 57.871C41.4782 56.7978 37.0776 55.263 34.6998 51.9145C33.5677 50.1524 32.963 48.1047 32.9568 46.0117C29.9764 50.4227 29.32 56.7441 30.0624 62.2069C30.9232 68.6463 35.001 75.0214 41.2738 76.6098C43.6007 77.098 45.9916 77.2067 48.3534 76.9317C58.387 76.2065 68.2906 74.2343 77.8343 71.0611C75.3415 68.7182 72.612 66.6393 69.6894 64.8578V64.8578Z" fill="url(#paint8_linear_20_3064)"></path><path style="mix-blend-mode:multiply" opacity="0.21" d="M103.796 48.0506C103.129 46.548 101.536 45.7109 100.03 45.0563C91.3688 41.2677 82.105 39.69 72.6475 39.2715C74.4494 41.4484 75.9877 43.8295 77.2309 46.3656C79.0698 50.2039 80.683 54.1457 82.062 58.1712C83.9124 63.1534 85.4186 68.256 86.5701 73.4434C88.4848 82.9556 89.0138 92.6936 88.1409 102.356L91.6808 102.12C93.3701 93.5345 96.6517 85.6354 99.0833 77.3071C101.694 68.8232 103.379 60.0828 104.108 51.2381C104.259 50.1659 104.152 49.0734 103.796 48.0506V48.0506Z" fill="url(#paint9_linear_20_3064)"></path><path d="M125.445 18.3338C128.006 18.5162 130.695 18.924 132.686 20.5446C136.107 23.3458 135.602 29.2486 139.723 30.9872C141.239 31.5387 142.843 31.815 144.457 31.8029C145.862 31.9327 147.279 31.8348 148.653 31.5131C149.687 31.201 150.633 30.6493 151.412 29.9033C152.192 29.1572 152.784 28.2379 153.14 27.2202C151.787 27.6305 150.335 27.5737 149.019 27.0592C146.125 25.7283 147.405 22.9594 147.405 20.5231C147.513 17.5348 146.742 14.5803 145.188 12.0231C142.542 7.98773 137.657 5.97001 132.998 4.85384C129.447 4.02745 125.639 3.58742 122.239 4.85384C118.839 6.12027 113.373 9.64049 114.556 13.7403C115.74 17.84 121.959 18.0762 125.445 18.3338Z" fill="#154BAE"></path><g style="mix-blend-mode:multiply" opacity="0.71"><path d="M143.734 25.4051C140.011 22.9903 138.355 18.5256 134.46 16.304C130.823 14.2112 126.229 13.7819 122.108 13.7712C119.73 13.7712 115.652 13.8463 114.576 11.2598C114.302 12.0492 114.279 12.904 114.512 13.7068C115.738 17.9997 121.968 18.0749 125.411 18.3324C127.972 18.5149 130.661 18.9227 132.652 20.5433C136.073 23.3445 135.568 29.2473 139.689 30.9859C141.205 31.5374 142.809 31.8137 144.423 31.8016C145.828 31.9314 147.245 31.8335 148.619 31.5118C149.49 31.2444 150.299 30.8068 150.999 30.2246C151.699 29.6423 152.276 28.9271 152.697 28.1204C149.518 28.0415 146.42 27.103 143.734 25.4051Z" fill="#154BAE"></path></g><path d="M96.5868 104.656C99.3054 106.802 101.97 109.024 104.581 111.321C105.192 111.749 105.631 112.381 105.818 113.102C106.195 116.064 97.5228 113.102 96.1994 112.727C92.3044 111.739 88.4418 110.58 84.6437 109.303C80.34 107.833 81.2438 103.014 82.9115 99.8906C85.1753 100.515 87.5042 100.876 89.8514 100.964C90.5625 100.949 91.2712 101.051 91.9494 101.264C92.422 101.476 92.8636 101.75 93.2621 102.08C94.381 102.939 95.4893 103.797 96.5868 104.656Z" fill="url(#paint10_linear_20_3064)"></path><path opacity="0.97" d="M51.6663 104.677C49.5145 104.967 46.8138 104.978 45.5442 105.171C45.3799 104.642 45.0982 104.157 44.72 103.752C44.3419 103.347 43.877 103.032 43.36 102.831C42.843 102.63 42.2872 102.548 41.734 102.59C41.1807 102.633 40.6442 102.8 40.1645 103.078C39.709 103.382 39.3179 103.772 39.0133 104.226C38.4709 105.014 38.1491 105.931 38.081 106.884C38.0129 107.837 38.2011 108.79 38.6259 109.646C39.0667 110.494 39.7232 111.211 40.5296 111.725C41.336 112.239 42.2639 112.533 43.2201 112.576C43.7529 112.613 44.2876 112.536 44.7884 112.351C45.2893 112.166 45.745 111.877 46.1252 111.503C46.4934 111.113 46.7183 110.61 46.7633 110.076C46.8082 109.542 46.6705 109.008 46.3727 108.562C49.5834 107.915 52.7357 107.007 55.7979 105.847C55.9811 109.19 55.8405 112.544 55.3783 115.86C54.7903 115.767 54.1894 115.794 53.6123 115.94C53.0351 116.085 52.4938 116.347 52.0215 116.709C51.5492 117.07 51.1558 117.524 50.8653 118.043C50.5748 118.561 50.3934 119.133 50.3321 119.724C50.3037 120.929 50.6993 122.106 51.45 123.051C52.2008 123.996 53.2594 124.649 54.4422 124.897C55.258 125.067 56.1036 125.029 56.9009 124.787C57.6983 124.545 58.4216 124.107 59.0042 123.513C59.5662 122.895 59.9177 122.116 60.0086 121.287C60.0994 120.458 59.9248 119.622 59.5099 118.898C59.2542 118.57 59.0443 118.209 58.8859 117.824C58.8265 117.501 58.8265 117.171 58.8859 116.848C58.9935 115.152 58.5308 108.047 59.5745 106.995C60.8441 105.707 67.827 107.199 69.527 107.457C69.2 108.301 69.1995 109.237 69.5257 110.082C69.8518 110.927 70.4812 111.621 71.2915 112.029C72.2562 112.388 73.2885 112.531 74.3149 112.447C75.056 112.491 75.7962 112.347 76.4667 112.029C76.9225 111.692 77.2884 111.249 77.5323 110.738C77.7762 110.227 77.8907 109.664 77.8655 109.099C77.9048 107.803 77.5299 106.529 76.7948 105.46C76.0598 104.391 75.0028 103.583 73.7769 103.153C72.4965 102.767 70.8503 103.024 70.237 104.226C66.6111 103.658 62.9529 103.218 59.2947 102.885C59.3916 100.384 53.56 75.2704 54.722 75.1309L50.1385 75.646C51.01 82.2572 52.172 88.8361 53.6137 95.34C54.0441 97.2933 56.1745 102.509 54.7972 103.7C53.8521 104.283 52.7756 104.618 51.6663 104.677V104.677Z" fill="url(#paint11_linear_20_3064)"></path><path opacity="0.97" d="M46.4369 109.676C46.4369 109.429 46.4369 109.172 46.4369 108.925C46.302 108.126 46.0782 107.345 45.7699 106.596C45.4901 105.973 45.1889 105.372 44.8553 104.782C44.6624 104.435 44.5728 104.04 44.5971 103.644C44.0288 103.112 43.3054 102.774 42.5315 102.679C41.7577 102.585 40.9737 102.739 40.2934 103.119C39.8379 103.423 39.4469 103.813 39.1422 104.267C38.5999 105.054 38.278 105.972 38.2099 106.924C38.1418 107.877 38.33 108.831 38.7548 109.687C39.1956 110.534 39.8522 111.251 40.6586 111.765C41.465 112.28 42.3928 112.573 43.349 112.617C43.8818 112.654 44.4165 112.577 44.9173 112.392C45.4182 112.207 45.8739 111.918 46.2541 111.543C46.4895 111.28 46.6655 110.969 46.7706 110.631C46.5772 110.348 46.4621 110.018 46.4369 109.676V109.676Z" fill="url(#paint12_linear_20_3064)"></path><path opacity="0.97" d="M73.7983 103.15C73.2383 102.953 72.6346 102.914 72.0537 103.037C71.4729 103.16 70.9372 103.441 70.5059 103.848C70.1723 104.814 69.8496 105.79 69.6129 106.778C69.6129 107.003 69.5268 107.229 69.4838 107.443C69.4379 107.566 69.3984 107.692 69.3655 107.819V107.819C69.3655 107.937 69.3654 108.055 69.3116 108.162V108.259C69.3063 108.348 69.3063 108.438 69.3116 108.527C69.3116 108.667 69.3116 108.806 69.3116 108.946C69.3423 109.588 69.5439 110.211 69.8955 110.751C70.2472 111.29 70.7363 111.727 71.3128 112.015C72.2775 112.375 73.3099 112.518 74.3363 112.434C75.0775 112.477 75.8176 112.333 76.4882 112.015C76.944 111.678 77.3099 111.235 77.5538 110.724C77.7976 110.213 77.9121 109.651 77.887 109.085C77.924 107.791 77.5479 106.519 76.813 105.453C76.0781 104.386 75.0224 103.58 73.7983 103.15Z" fill="url(#paint13_linear_20_3064)"></path><path opacity="0.97" d="M58.9399 117.822C58.8967 117.658 58.875 117.488 58.8754 117.318L58.7032 117.178C58.4019 116.974 58.1115 116.749 57.7995 116.567C57.4874 116.384 57.0893 116.202 56.7235 116.019C57.2615 116.298 56.6698 116.019 56.5084 115.955L55.895 115.783L55.4324 115.697C55.4324 115.697 55.4324 115.794 55.4324 115.848C54.8445 115.754 54.2434 115.781 53.6663 115.927C53.0891 116.073 52.5479 116.334 52.0756 116.696C51.6033 117.058 51.2099 117.512 50.9194 118.03C50.629 118.548 50.4475 119.12 50.3862 119.711C50.3579 120.917 50.7534 122.094 51.5042 123.039C52.2549 123.983 53.3135 124.636 54.4964 124.884C55.3122 125.054 56.1577 125.017 56.9551 124.775C57.7524 124.533 58.4758 124.094 59.0584 123.5C59.6203 122.882 59.9719 122.103 60.0627 121.274C60.1536 120.445 59.979 119.609 59.564 118.885C59.3091 118.56 59.0991 118.203 58.9399 117.822V117.822Z" fill="url(#paint14_linear_20_3064)"></path><path opacity="0.97" d="M21.3467 81.0539L82.2342 77.4371L82.9982 66.8979C64.5781 68.5936 46.2224 70.8581 27.9314 73.6915C25.7795 69.5273 24.8865 64.6655 23.477 60.2009C17.6777 41.7197 14.8696 22.5731 8.49997 4.29584C8.45506 4.06958 8.32383 3.86954 8.13406 3.73777C7.93928 3.66814 7.72638 3.66814 7.5316 3.73777L0 5.29394C1.47404 4.99344 8.33851 33.6597 8.96255 35.9886C12.9435 51.0426 17.0716 66.0643 21.3467 81.0539Z" fill="url(#paint15_linear_20_3064)"></path><path d="M95.8874 87.7709C95.8897 89.1293 96.1299 90.4768 96.5974 91.7526C96.922 92.7205 97.511 93.5788 98.2979 94.231C99.0848 94.8833 100.039 95.3035 101.052 95.4445C101.658 95.4957 102.265 95.3528 102.784 95.0367C103.232 94.6614 103.596 94.1979 103.856 93.6752C104.115 93.1525 104.263 92.582 104.29 91.9995C104.696 89.5168 104.804 86.9949 104.613 84.4868C105.194 84.9161 105.356 85.7103 105.689 86.3435C106.023 86.9767 106.97 87.4167 107.475 86.9445C107.68 85.7317 106.668 84.7122 105.926 83.7248C103.892 81.0417 104.398 78.2083 103.43 75.2676C102.924 73.7436 102.87 73.8939 101.052 73.7222C99.7177 73.5934 98.5449 73.3787 97.4475 74.3446C94.65 76.7702 95.8658 82.5979 95.8443 85.7639C95.8551 86.4079 95.8551 87.1377 95.8874 87.7709Z" fill="#D9C49F"></path><path d="M96.0396 22.8409C93.8339 27.2412 93.4249 32.2962 93.242 37.2116C92.7699 50.2638 93.6171 63.3303 95.7706 76.2131L103.388 76.2883C109.823 61.2391 113.371 45.1193 113.846 28.7652C114.075 25.7896 113.71 22.7982 112.77 19.9647C109.155 10.5631 99.3319 16.3049 96.0396 22.8409Z" fill="url(#paint16_linear_20_3064)"></path><defs><linearGradient id="paint0_linear_20_3064" x1="7.02626" y1="40.8387" x2="36.9267" y2="40.8387" gradientUnits="userSpaceOnUse"><stop stop-color="#A24ED2"></stop><stop offset="0.49" stop-color="#6D3175"></stop><stop offset="1"></stop></linearGradient><linearGradient id="paint1_linear_20_3064" x1="96.8341" y1="65.5016" x2="136.074" y2="65.5016" gradientUnits="userSpaceOnUse"><stop stop-color="#C8643B"></stop><stop offset="0.45" stop-color="#ED4C37"></stop><stop offset="0.82" stop-color="#90020F"></stop><stop offset="1" stop-color="#AD2834"></stop></linearGradient><linearGradient id="paint2_linear_20_3064" x1="61769.7" y1="27936.8" x2="60368.5" y2="27936.8" gradientUnits="userSpaceOnUse"><stop stop-color="#F18C62"></stop><stop offset="0.45" stop-color="#F47160"></stop><stop offset="0.82" stop-color="#FF4B5C"></stop><stop offset="1" stop-color="#9B323C"></stop></linearGradient><linearGradient id="paint3_linear_20_3064" x1="-209595" y1="3129.07" x2="-191270" y2="3129.07" gradientUnits="userSpaceOnUse"><stop stop-color="#F18B61"></stop><stop offset="0.45" stop-color="#FF6854"></stop><stop offset="0.82" stop-color="#FF6A78"></stop><stop offset="1" stop-color="#E93546"></stop></linearGradient><linearGradient id="paint4_linear_20_3064" x1="-103983" y1="2911.81" x2="-94888" y2="2911.81" gradientUnits="userSpaceOnUse"><stop stop-color="#C8643B"></stop><stop offset="0.45" stop-color="#ED4C37"></stop><stop offset="0.82" stop-color="#90020F"></stop><stop offset="1" stop-color="#AD2834"></stop></linearGradient><linearGradient id="paint5_linear_20_3064" x1="32.805" y1="28.8404" x2="112.199" y2="28.8404" gradientUnits="userSpaceOnUse"><stop stop-color="#F7C954"></stop><stop offset="1" stop-color="#EE6E42"></stop></linearGradient><linearGradient id="paint6_linear_20_3064" x1="-96951.4" y1="18891.9" x2="-91827.8" y2="18891.9" gradientUnits="userSpaceOnUse"><stop stop-color="#F7C954"></stop><stop offset="1" stop-color="#EE6E42"></stop></linearGradient><linearGradient id="paint7_linear_20_3064" x1="29.7607" y1="70.9116" x2="104.162" y2="70.9116" gradientUnits="userSpaceOnUse"><stop stop-color="#0F50C7"></stop><stop offset="0.16" stop-color="#0B47B9"></stop><stop offset="0.82" stop-color="#001766"></stop><stop offset="1" stop-color="#001766"></stop></linearGradient><linearGradient id="paint8_linear_20_3064" x1="-74159.2" y1="13378.8" x2="-70836.4" y2="13378.8" gradientUnits="userSpaceOnUse"><stop stop-color="#0F50C7"></stop><stop offset="0.16" stop-color="#0B47B9"></stop><stop offset="0.82" stop-color="#001766"></stop><stop offset="1" stop-color="#001766"></stop></linearGradient><linearGradient id="paint9_linear_20_3064" x1="-48602.8" y1="27657.9" x2="-46422.7" y2="27657.9" gradientUnits="userSpaceOnUse"><stop stop-color="#0F50C7"></stop><stop offset="0.16" stop-color="#0B47B9"></stop><stop offset="0.82" stop-color="#001766"></stop><stop offset="1" stop-color="#001766"></stop></linearGradient><linearGradient id="paint10_linear_20_3064" x1="81.5235" y1="107.146" x2="105.829" y2="107.146" gradientUnits="userSpaceOnUse"><stop stop-color="#00805F"></stop><stop offset="0.82" stop-color="#00393C"></stop><stop offset="1" stop-color="#007175"></stop></linearGradient><linearGradient id="paint11_linear_20_3064" x1="-61103.1" y1="23266.5" x2="-59632" y2="23266.5" gradientUnits="userSpaceOnUse"><stop stop-color="#EB845A"></stop><stop offset="0.45" stop-color="#FB7867"></stop><stop offset="0.82" stop-color="#F44F5F"></stop><stop offset="1" stop-color="#E84E5C"></stop></linearGradient><linearGradient id="paint12_linear_20_3064" x1="38.1307" y1="107.583" x2="77.8976" y2="107.583" gradientUnits="userSpaceOnUse"><stop stop-color="#C94F4F"></stop><stop offset="0.45" stop-color="#E82929"></stop><stop offset="0.82" stop-color="#B92B2B"></stop><stop offset="1" stop-color="#AD2834"></stop></linearGradient><linearGradient id="paint13_linear_20_3064" x1="-13115.1" y1="4583.99" x2="-12797.9" y2="4583.99" gradientUnits="userSpaceOnUse"><stop></stop><stop offset="0.45"></stop><stop offset="0.82"></stop><stop offset="1" stop-color="#AD2834"></stop></linearGradient><linearGradient id="paint14_linear_20_3064" x1="-14852.4" y1="4612.2" x2="-14493.8" y2="4612.2" gradientUnits="userSpaceOnUse"><stop></stop><stop offset="0.45"></stop><stop offset="0.82"></stop><stop offset="1" stop-color="#AD2834"></stop></linearGradient><linearGradient id="paint15_linear_20_3064" x1="-130442" y1="31823.7" x2="-124037" y2="31823.7" gradientUnits="userSpaceOnUse"><stop stop-color="#F07F51"></stop><stop offset="0.45" stop-color="#FE7867"></stop><stop offset="0.82" stop-color="#E8515F"></stop><stop offset="1" stop-color="#DF3C4B"></stop></linearGradient><linearGradient id="paint16_linear_20_3064" x1="-30792" y1="25401.7" x2="-30390.7" y2="25401.7" gradientUnits="userSpaceOnUse"><stop stop-color="#F7C954"></stop><stop offset="1" stop-color="#EE6E42"></stop></linearGradient></defs></svg>